<?xml version="1.0" standalone="no"?>
<!DOCTYPE svg PUBLIC "-//W3C//DTD SVG 20010904//EN"
 "http://www.w3.org/TR/2001/REC-SVG-20010904/DTD/svg10.dtd">
<svg version="1.0" xmlns="http://www.w3.org/2000/svg"
 width="512.000000pt" height="411.000000pt" viewBox="0 0 512.000000 411.000000"
 preserveAspectRatio="xMidYMid meet">

<g transform="translate(0.000000,411.000000) scale(0.100000,-0.100000)"
fill="#000000" stroke="none">
<path d="M1764 3769 c-71 -27 -137 -88 -171 -157 l-28 -57 0 -1575 0 -1575 28
-57 c35 -70 101 -131 174 -158 54 -20 69 -20 827 -18 l771 3 49 24 c66 33 122
91 155 160 l26 56 0 1565 0 1565 -27 57 c-31 66 -91 128 -156 160 l-47 23
-775 2 c-753 2 -776 2 -826 -18z m1616 -1684 l0 -1195 -800 0 -800 0 0 1195 0
1195 800 0 800 0 0 -1195z m-733 -1366 c64 -24 122 -109 123 -179 0 -49 -37
-118 -83 -154 -35 -28 -46 -31 -106 -31 -56 0 -74 4 -108 27 -117 77 -106 265
19 327 47 23 110 27 155 10z"/>
</g>
</svg>
