<svg width="16" height="16" viewBox="0 0 16 16" fill="none" xmlns="http://www.w3.org/2000/svg">
<path fill-rule="evenodd" clip-rule="evenodd" d="M8.01015 2.59844C5.02782 2.59844 2.61016 5.0161 2.61016 7.99844C2.61016 10.9808 5.02782 13.3984 8.01015 13.3984C10.9925 13.3984 13.4101 10.9808 13.4101 7.99844C13.4101 5.0161 10.9925 2.59844 8.01015 2.59844ZM1.41016 7.99844C1.41016 4.35336 4.36507 1.39844 8.01015 1.39844C11.6552 1.39844 14.6101 4.35336 14.6101 7.99844C14.6101 11.6435 11.6552 14.5984 8.01015 14.5984C4.36507 14.5984 1.41016 11.6435 1.41016 7.99844Z" fill="#2E2F33" fill-opacity="0.88" class="fill"/>
<path d="M8.67682 10.8318C8.67682 11.2 8.37834 11.4984 8.01015 11.4984C7.64196 11.4984 7.34348 11.2 7.34348 10.8318C7.34348 10.4636 7.64196 10.1651 8.01015 10.1651C8.37834 10.1651 8.67682 10.4636 8.67682 10.8318Z" fill="#2E2F33" fill-opacity="0.88" class="fill"/>
<path fill-rule="evenodd" clip-rule="evenodd" d="M7.41016 9.1651V4.49844H8.61015V9.1651H7.41016Z" fill="#2E2F33" fill-opacity="0.88" class="fill"/>
</svg>
